<?xml version="1.0" standalone="no"?>
<!DOCTYPE svg PUBLIC "-//W3C//DTD SVG 20010904//EN"
 "http://www.w3.org/TR/2001/REC-SVG-20010904/DTD/svg10.dtd">
<svg version="1.0" xmlns="http://www.w3.org/2000/svg"
 width="512.000000pt" height="512.000000pt" viewBox="0 0 512.000000 512.000000"
 preserveAspectRatio="xMidYMid meet">
<metadata>
Created by potrace 1.14, written by Peter Selinger 2001-2017
</metadata>
<g transform="translate(0.000000,512.000000) scale(0.100000,-0.100000)"
fill="#000000" stroke="none">
<path d="M3009 4986 c-2 -2 -22 -7 -44 -10 -45 -7 -79 -13 -82 -16 -3 -3 -7
-4 -53 -13 -70 -14 -115 -25 -115 -27 0 -1 -7 -3 -15 -5 -8 -1 -35 -8 -60 -15
-54 -15 -61 -16 -125 -32 -27 -6 -53 -17 -57 -22 -4 -6 -8 -7 -8 -3 0 4 -9 3
-21 -3 -11 -6 -28 -13 -38 -15 -9 -2 -58 -17 -107 -35 -49 -18 -93 -33 -99
-34 -5 -2 -23 -9 -40 -15 -16 -7 -58 -23 -91 -36 -34 -13 -92 -37 -131 -54
-104 -45 -127 -54 -135 -53 -5 1 -8 -3 -8 -8 0 -6 -4 -10 -10 -10 -14 0 -223
-103 -238 -118 -8 -7 -18 -10 -23 -7 -5 4 -9 1 -9 -5 0 -6 -4 -8 -10 -5 -5 3
-10 2 -10 -2 0 -5 -30 -24 -67 -42 -38 -19 -81 -44 -98 -55 -16 -12 -51 -33
-78 -46 -26 -14 -47 -28 -47 -32 0 -5 -4 -8 -9 -8 -6 0 -29 -13 -53 -28 -24
-16 -70 -46 -103 -68 -33 -21 -63 -43 -67 -49 -5 -6 -8 -6 -8 0 0 6 -5 2 -11
-7 -5 -10 -15 -18 -20 -18 -8 0 -73 -44 -114 -78 -6 -5 -24 -17 -40 -28 -16
-10 -37 -26 -46 -34 -8 -8 -26 -22 -39 -30 -12 -8 -37 -27 -54 -43 -17 -15
-39 -30 -48 -33 -10 -3 -18 -9 -18 -13 0 -5 -28 -30 -62 -57 -35 -27 -68 -53
-74 -59 -6 -5 -33 -29 -60 -52 -27 -23 -62 -53 -79 -68 -16 -14 -49 -43 -73
-62 -68 -57 -79 -89 -76 -220 1 -61 5 -117 9 -124 5 -8 4 -10 -3 -5 -7 4 -12
3 -12 -3 0 -5 5 -13 10 -16 6 -4 7 -12 3 -18 -5 -7 -7 -46 -6 -87 2 -41 3 -79
3 -85 -7 -173 -2 -213 36 -255 12 -14 20 -34 18 -45 -16 -86 -23 -343 -9 -349
5 -3 4 -5 -4 -5 -10 -1 -11 -4 -2 -15 8 -10 9 -16 1 -21 -6 -3 -7 -11 -4 -17
4 -5 8 -29 10 -51 6 -66 11 -95 20 -108 5 -8 3 -10 -5 -4 -10 6 -11 3 -2 -14
7 -11 10 -21 8 -21 -3 0 0 -19 4 -42 5 -24 12 -61 15 -83 3 -21 8 -43 11 -49
3 -5 8 -21 10 -35 6 -40 10 -55 16 -71 3 -8 15 -44 27 -79 12 -34 31 -83 41
-107 11 -24 19 -47 19 -50 -1 -4 2 -10 7 -13 5 -3 16 -22 25 -41 18 -37 102
-161 153 -225 41 -52 233 -245 244 -245 4 0 22 -12 39 -27 50 -46 62 -54 62
-46 0 4 5 0 11 -9 5 -10 16 -18 24 -18 7 0 15 -3 17 -7 13 -31 298 -175 372
-190 11 -2 24 -7 30 -12 6 -5 35 -14 64 -22 28 -7 52 -15 52 -18 0 -3 10 -7
23 -8 35 -2 81 -10 97 -16 13 -5 84 -16 115 -18 23 -2 91 14 103 23 6 6 12 8
12 4 0 -4 13 0 30 9 16 8 32 15 35 15 3 0 39 16 81 35 42 19 80 35 85 35 5 0
9 5 9 10 0 6 9 10 20 10 11 0 20 3 20 8 0 4 14 13 31 21 18 8 67 34 111 57 77
43 105 53 93 35 -3 -5 -1 -12 5 -16 5 -3 10 -17 10 -31 0 -13 4 -24 8 -24 9 0
46 -79 43 -93 0 -4 3 -7 9 -7 5 0 17 -14 25 -31 9 -17 28 -45 43 -62 65 -75
204 -207 217 -207 8 0 69 -44 73 -52 2 -5 7 -8 11 -8 5 0 41 -18 81 -40 40
-22 79 -40 86 -40 8 0 14 -5 14 -12 0 -6 3 -8 7 -5 3 4 11 3 17 -2 6 -4 36
-16 66 -26 30 -10 59 -20 65 -23 5 -3 16 -7 25 -8 16 -3 52 -11 60 -14 3 -1 8
-2 13 -1 4 0 7 -2 7 -7 0 -4 12 -8 28 -8 15 -1 43 -5 62 -9 19 -5 50 -9 67 -9
18 -1 33 -3 33 -6 0 -17 443 -16 475 1 6 3 25 5 43 4 17 0 32 2 32 5 0 3 10 6
23 7 33 1 160 31 207 50 8 4 18 7 23 8 4 2 8 3 10 5 1 1 9 3 17 5 8 2 29 9 45
16 17 7 32 13 35 14 8 3 112 55 145 72 88 47 191 127 278 216 53 54 97 106 97
113 0 8 5 14 10 14 6 0 10 7 10 16 0 8 5 12 10 9 6 -3 10 1 10 10 0 9 7 23 15
32 8 8 13 19 10 24 -4 5 -1 9 6 9 7 0 9 3 6 7 -4 3 -1 13 7 22 7 9 19 34 25
56 7 22 15 47 18 55 4 8 7 23 8 33 2 9 3 18 5 20 9 11 12 101 14 497 1 250 -1
471 -6 490 -5 19 -11 49 -14 65 -3 17 -9 34 -14 39 -5 5 -6 15 -3 22 3 8 -1
14 -8 14 -7 0 -9 3 -6 7 4 3 0 17 -8 30 -9 13 -13 23 -10 23 4 0 -3 13 -14 29
-12 16 -21 36 -21 45 0 9 -4 16 -8 16 -4 0 -16 14 -26 32 -41 69 -191 220
-267 269 -27 18 -50 36 -50 41 -1 4 -2 14 -3 21 -1 6 2 20 7 30 4 10 10 26 12
35 2 9 9 40 15 67 6 28 13 59 15 70 2 11 7 34 11 50 3 17 8 109 9 205 3 164
-1 211 -31 360 -8 37 -7 95 1 180 4 41 8 93 9 116 2 22 5 45 7 50 2 5 4 33 4
61 0 29 2 53 5 53 3 0 5 12 6 28 1 15 4 64 7 110 5 58 3 90 -5 105 -7 12 -12
25 -13 28 0 9 -127 119 -137 119 -5 0 -6 5 -3 10 3 6 0 10 -9 10 -8 0 -16 4
-18 8 -4 12 -95 72 -107 72 -6 0 -11 3 -11 8 0 10 -247 157 -282 169 -10 3
-18 9 -18 14 0 5 -9 9 -20 9 -11 0 -20 5 -20 10 0 6 -4 10 -10 10 -5 0 -77 33
-159 74 -82 41 -152 72 -155 68 -3 -3 -6 0 -6 6 0 7 -9 12 -20 12 -11 0 -20 5
-20 10 0 6 -6 10 -14 10 -7 0 -40 12 -72 27 -33 15 -62 27 -66 29 -5 1 -10 3
-13 4 -3 1 -8 3 -12 5 -5 1 -21 7 -38 14 -26 11 -69 28 -165 63 -14 5 -26 9
-28 9 -1 -1 -18 5 -37 13 -19 8 -51 17 -71 20 -20 4 -40 8 -44 11 -4 2 -9 3
-11 1z"/>
</g>
</svg>
